<mxfile host="app.diagrams.net" agent="Mozilla/5.0 (Macintosh; Intel Mac OS X 10.15; rv:132.0) Gecko/20100101 Firefox/132.0" version="24.9.1" pages="3">
  <diagram name="Page-1" id="glysZnFxbkq1BgOJw1s-">
    <mxGraphModel dx="2074" dy="2032" grid="1" gridSize="10" guides="1" tooltips="1" connect="1" arrows="1" fold="1" page="1" pageScale="1" pageWidth="1100" pageHeight="850" math="0" shadow="0">
      <root>
        <mxCell id="0" />
        <mxCell id="1" parent="0" />
        <mxCell id="zMTPzyj43wh1Darj2Y3F-7" value="" style="edgeStyle=orthogonalEdgeStyle;rounded=0;orthogonalLoop=1;jettySize=auto;html=1;fontFamily=Helvetica;fontSize=12;fontColor=default;" edge="1" parent="1" source="zMTPzyj43wh1Darj2Y3F-1" target="zMTPzyj43wh1Darj2Y3F-6">
          <mxGeometry relative="1" as="geometry" />
        </mxCell>
        <mxCell id="zMTPzyj43wh1Darj2Y3F-1" value="Azure Storage" style="rounded=1;whiteSpace=wrap;html=1;fillColor=#fff2cc;strokeColor=#000000;strokeWidth=3;" vertex="1" parent="1">
          <mxGeometry x="480" y="360" width="120" height="40" as="geometry" />
        </mxCell>
        <mxCell id="zMTPzyj43wh1Darj2Y3F-2" value="Overview" style="rounded=1;whiteSpace=wrap;html=1;" vertex="1" parent="1">
          <mxGeometry x="960" width="120" height="40" as="geometry" />
        </mxCell>
        <mxCell id="zMTPzyj43wh1Darj2Y3F-9" value="" style="edgeStyle=orthogonalEdgeStyle;rounded=0;orthogonalLoop=1;jettySize=auto;html=1;fontFamily=Helvetica;fontSize=12;fontColor=default;" edge="1" parent="1" source="zMTPzyj43wh1Darj2Y3F-3" target="zMTPzyj43wh1Darj2Y3F-8">
          <mxGeometry relative="1" as="geometry" />
        </mxCell>
        <mxCell id="zMTPzyj43wh1Darj2Y3F-3" value="Architecture" style="rounded=1;whiteSpace=wrap;html=1;" vertex="1" parent="1">
          <mxGeometry x="960" y="80" width="120" height="40" as="geometry" />
        </mxCell>
        <mxCell id="zMTPzyj43wh1Darj2Y3F-4" value="Key Properties" style="rounded=1;whiteSpace=wrap;html=1;" vertex="1" parent="1">
          <mxGeometry x="960" y="160" width="120" height="40" as="geometry" />
        </mxCell>
        <mxCell id="zMTPzyj43wh1Darj2Y3F-5" value="Key Types" style="rounded=1;whiteSpace=wrap;html=1;" vertex="1" parent="1">
          <mxGeometry x="960" y="240" width="120" height="40" as="geometry" />
        </mxCell>
        <mxCell id="zMTPzyj43wh1Darj2Y3F-6" value="Types" style="whiteSpace=wrap;html=1;fillColor=#fff2cc;strokeColor=#000000;rounded=1;strokeWidth=1;" vertex="1" parent="1">
          <mxGeometry x="480" y="520" width="120" height="40" as="geometry" />
        </mxCell>
        <mxCell id="zMTPzyj43wh1Darj2Y3F-11" value="" style="edgeStyle=orthogonalEdgeStyle;rounded=0;orthogonalLoop=1;jettySize=auto;html=1;fontFamily=Helvetica;fontSize=12;fontColor=default;" edge="1" parent="1" source="zMTPzyj43wh1Darj2Y3F-8" target="zMTPzyj43wh1Darj2Y3F-10">
          <mxGeometry relative="1" as="geometry">
            <Array as="points">
              <mxPoint x="1260" y="-20" />
            </Array>
          </mxGeometry>
        </mxCell>
        <mxCell id="zMTPzyj43wh1Darj2Y3F-14" style="edgeStyle=orthogonalEdgeStyle;rounded=0;orthogonalLoop=1;jettySize=auto;html=1;fontFamily=Helvetica;fontSize=12;fontColor=default;" edge="1" parent="1" source="zMTPzyj43wh1Darj2Y3F-8" target="zMTPzyj43wh1Darj2Y3F-12">
          <mxGeometry relative="1" as="geometry" />
        </mxCell>
        <mxCell id="zMTPzyj43wh1Darj2Y3F-17" style="edgeStyle=orthogonalEdgeStyle;rounded=0;orthogonalLoop=1;jettySize=auto;html=1;entryX=0;entryY=0.5;entryDx=0;entryDy=0;fontFamily=Helvetica;fontSize=12;fontColor=default;" edge="1" parent="1" source="zMTPzyj43wh1Darj2Y3F-8" target="zMTPzyj43wh1Darj2Y3F-15">
          <mxGeometry relative="1" as="geometry">
            <Array as="points">
              <mxPoint x="1260" y="220" />
            </Array>
          </mxGeometry>
        </mxCell>
        <mxCell id="zMTPzyj43wh1Darj2Y3F-8" value="Components" style="whiteSpace=wrap;html=1;rounded=1;" vertex="1" parent="1">
          <mxGeometry x="1200" y="80" width="120" height="40" as="geometry" />
        </mxCell>
        <mxCell id="zMTPzyj43wh1Darj2Y3F-13" style="edgeStyle=orthogonalEdgeStyle;rounded=0;orthogonalLoop=1;jettySize=auto;html=1;fontFamily=Helvetica;fontSize=12;fontColor=default;" edge="1" parent="1" source="zMTPzyj43wh1Darj2Y3F-10" target="zMTPzyj43wh1Darj2Y3F-12">
          <mxGeometry relative="1" as="geometry" />
        </mxCell>
        <mxCell id="zMTPzyj43wh1Darj2Y3F-19" value="" style="edgeStyle=orthogonalEdgeStyle;rounded=0;orthogonalLoop=1;jettySize=auto;html=1;fontFamily=Helvetica;fontSize=12;fontColor=default;" edge="1" parent="1" source="zMTPzyj43wh1Darj2Y3F-10" target="zMTPzyj43wh1Darj2Y3F-18">
          <mxGeometry relative="1" as="geometry" />
        </mxCell>
        <mxCell id="zMTPzyj43wh1Darj2Y3F-10" value="Storage Accounts" style="whiteSpace=wrap;html=1;rounded=1;" vertex="1" parent="1">
          <mxGeometry x="1440" y="-40" width="120" height="40" as="geometry" />
        </mxCell>
        <mxCell id="zMTPzyj43wh1Darj2Y3F-12" value="Storage Services" style="whiteSpace=wrap;html=1;rounded=1;" vertex="1" parent="1">
          <mxGeometry x="1440" y="80" width="120" height="40" as="geometry" />
        </mxCell>
        <mxCell id="zMTPzyj43wh1Darj2Y3F-15" value="Public Endpoints" style="whiteSpace=wrap;html=1;rounded=1;" vertex="1" parent="1">
          <mxGeometry x="1440" y="200" width="120" height="40" as="geometry" />
        </mxCell>
        <mxCell id="zMTPzyj43wh1Darj2Y3F-25" style="edgeStyle=orthogonalEdgeStyle;rounded=0;orthogonalLoop=1;jettySize=auto;html=1;entryX=0;entryY=0.5;entryDx=0;entryDy=0;fontFamily=Helvetica;fontSize=12;fontColor=default;" edge="1" parent="1" source="zMTPzyj43wh1Darj2Y3F-18" target="zMTPzyj43wh1Darj2Y3F-20">
          <mxGeometry relative="1" as="geometry">
            <Array as="points">
              <mxPoint x="1740" y="-220" />
            </Array>
          </mxGeometry>
        </mxCell>
        <mxCell id="zMTPzyj43wh1Darj2Y3F-26" style="edgeStyle=orthogonalEdgeStyle;rounded=0;orthogonalLoop=1;jettySize=auto;html=1;entryX=0;entryY=0.5;entryDx=0;entryDy=0;fontFamily=Helvetica;fontSize=12;fontColor=default;" edge="1" parent="1" source="zMTPzyj43wh1Darj2Y3F-18" target="zMTPzyj43wh1Darj2Y3F-22">
          <mxGeometry relative="1" as="geometry">
            <Array as="points">
              <mxPoint x="1760" y="-100" />
            </Array>
          </mxGeometry>
        </mxCell>
        <mxCell id="zMTPzyj43wh1Darj2Y3F-27" style="edgeStyle=orthogonalEdgeStyle;rounded=0;orthogonalLoop=1;jettySize=auto;html=1;entryX=0;entryY=0.5;entryDx=0;entryDy=0;fontFamily=Helvetica;fontSize=12;fontColor=default;" edge="1" parent="1" source="zMTPzyj43wh1Darj2Y3F-18" target="zMTPzyj43wh1Darj2Y3F-23">
          <mxGeometry relative="1" as="geometry">
            <Array as="points">
              <mxPoint x="1760" y="60" />
            </Array>
          </mxGeometry>
        </mxCell>
        <mxCell id="zMTPzyj43wh1Darj2Y3F-28" style="edgeStyle=orthogonalEdgeStyle;rounded=0;orthogonalLoop=1;jettySize=auto;html=1;entryX=0;entryY=0.5;entryDx=0;entryDy=0;fontFamily=Helvetica;fontSize=12;fontColor=default;" edge="1" parent="1" source="zMTPzyj43wh1Darj2Y3F-18" target="zMTPzyj43wh1Darj2Y3F-24">
          <mxGeometry relative="1" as="geometry">
            <Array as="points">
              <mxPoint x="1740" y="180" />
            </Array>
          </mxGeometry>
        </mxCell>
        <mxCell id="zMTPzyj43wh1Darj2Y3F-18" value="Properties" style="ellipse;whiteSpace=wrap;html=1;rounded=1;" vertex="1" parent="1">
          <mxGeometry x="1680" y="-40" width="120" height="40" as="geometry" />
        </mxCell>
        <mxCell id="zMTPzyj43wh1Darj2Y3F-20" value="Name" style="whiteSpace=wrap;html=1;rounded=1;" vertex="1" parent="1">
          <mxGeometry x="1880" y="-240" width="120" height="40" as="geometry" />
        </mxCell>
        <mxCell id="zMTPzyj43wh1Darj2Y3F-30" value="" style="edgeStyle=orthogonalEdgeStyle;rounded=0;orthogonalLoop=1;jettySize=auto;html=1;fontFamily=Helvetica;fontSize=12;fontColor=default;" edge="1" parent="1" source="zMTPzyj43wh1Darj2Y3F-22" target="zMTPzyj43wh1Darj2Y3F-29">
          <mxGeometry relative="1" as="geometry" />
        </mxCell>
        <mxCell id="zMTPzyj43wh1Darj2Y3F-32" value="" style="edgeStyle=orthogonalEdgeStyle;rounded=0;orthogonalLoop=1;jettySize=auto;html=1;fontFamily=Helvetica;fontSize=12;fontColor=default;" edge="1" parent="1" source="zMTPzyj43wh1Darj2Y3F-22" target="zMTPzyj43wh1Darj2Y3F-31">
          <mxGeometry relative="1" as="geometry" />
        </mxCell>
        <mxCell id="zMTPzyj43wh1Darj2Y3F-22" value="Performance" style="whiteSpace=wrap;html=1;rounded=1;" vertex="1" parent="1">
          <mxGeometry x="1880" y="-120" width="120" height="40" as="geometry" />
        </mxCell>
        <mxCell id="zMTPzyj43wh1Darj2Y3F-34" value="" style="edgeStyle=orthogonalEdgeStyle;rounded=0;orthogonalLoop=1;jettySize=auto;html=1;fontFamily=Helvetica;fontSize=12;fontColor=default;" edge="1" parent="1" source="zMTPzyj43wh1Darj2Y3F-23" target="zMTPzyj43wh1Darj2Y3F-33">
          <mxGeometry relative="1" as="geometry" />
        </mxCell>
        <mxCell id="zMTPzyj43wh1Darj2Y3F-23" value="Type" style="whiteSpace=wrap;html=1;rounded=1;" vertex="1" parent="1">
          <mxGeometry x="1880" y="40" width="120" height="40" as="geometry" />
        </mxCell>
        <mxCell id="zMTPzyj43wh1Darj2Y3F-24" value="Redundancy" style="whiteSpace=wrap;html=1;rounded=1;" vertex="1" parent="1">
          <mxGeometry x="1880" y="160" width="120" height="40" as="geometry" />
        </mxCell>
        <mxCell id="zMTPzyj43wh1Darj2Y3F-45" style="edgeStyle=orthogonalEdgeStyle;rounded=0;orthogonalLoop=1;jettySize=auto;html=1;entryX=0.5;entryY=0;entryDx=0;entryDy=0;fontFamily=Helvetica;fontSize=12;fontColor=default;dashed=1;" edge="1" parent="1" source="zMTPzyj43wh1Darj2Y3F-29" target="zMTPzyj43wh1Darj2Y3F-35">
          <mxGeometry relative="1" as="geometry" />
        </mxCell>
        <mxCell id="zMTPzyj43wh1Darj2Y3F-29" value="Standard&lt;br&gt;HDD" style="rhombus;whiteSpace=wrap;html=1;rounded=1;" vertex="1" parent="1">
          <mxGeometry x="2160" y="-200" width="80" height="80" as="geometry" />
        </mxCell>
        <mxCell id="zMTPzyj43wh1Darj2Y3F-46" style="edgeStyle=orthogonalEdgeStyle;rounded=0;orthogonalLoop=1;jettySize=auto;html=1;entryX=0.5;entryY=0;entryDx=0;entryDy=0;fontFamily=Helvetica;fontSize=12;fontColor=default;exitX=1;exitY=0.5;exitDx=0;exitDy=0;jumpStyle=arc;dashed=1;" edge="1" parent="1" source="zMTPzyj43wh1Darj2Y3F-31" target="zMTPzyj43wh1Darj2Y3F-38">
          <mxGeometry relative="1" as="geometry">
            <Array as="points">
              <mxPoint x="2320" y="-40" />
              <mxPoint x="2320" y="-20" />
              <mxPoint x="2500" y="-20" />
            </Array>
          </mxGeometry>
        </mxCell>
        <mxCell id="zMTPzyj43wh1Darj2Y3F-47" style="edgeStyle=orthogonalEdgeStyle;rounded=0;orthogonalLoop=1;jettySize=auto;html=1;fontFamily=Helvetica;fontSize=12;fontColor=default;jumpStyle=arc;dashed=1;" edge="1" parent="1" source="zMTPzyj43wh1Darj2Y3F-31" target="zMTPzyj43wh1Darj2Y3F-39">
          <mxGeometry relative="1" as="geometry">
            <Array as="points">
              <mxPoint x="2300" y="-40" />
              <mxPoint x="2300" y="60" />
              <mxPoint x="2500" y="60" />
            </Array>
          </mxGeometry>
        </mxCell>
        <mxCell id="zMTPzyj43wh1Darj2Y3F-48" style="edgeStyle=orthogonalEdgeStyle;rounded=0;orthogonalLoop=1;jettySize=auto;html=1;fontFamily=Helvetica;fontSize=12;fontColor=default;jumpStyle=arc;dashed=1;jumpSize=96;" edge="1" parent="1" source="zMTPzyj43wh1Darj2Y3F-31" target="zMTPzyj43wh1Darj2Y3F-40">
          <mxGeometry relative="1" as="geometry">
            <Array as="points">
              <mxPoint x="2280" y="-40" />
              <mxPoint x="2280" y="140" />
              <mxPoint x="2500" y="140" />
            </Array>
          </mxGeometry>
        </mxCell>
        <mxCell id="zMTPzyj43wh1Darj2Y3F-31" value="Premium &lt;br&gt;SDD" style="rhombus;whiteSpace=wrap;html=1;rounded=1;" vertex="1" parent="1">
          <mxGeometry x="2160" y="-80" width="80" height="80" as="geometry" />
        </mxCell>
        <mxCell id="zMTPzyj43wh1Darj2Y3F-41" style="edgeStyle=orthogonalEdgeStyle;rounded=0;orthogonalLoop=1;jettySize=auto;html=1;entryX=0;entryY=0.5;entryDx=0;entryDy=0;fontFamily=Helvetica;fontSize=12;fontColor=default;" edge="1" parent="1" source="zMTPzyj43wh1Darj2Y3F-33" target="zMTPzyj43wh1Darj2Y3F-35">
          <mxGeometry relative="1" as="geometry" />
        </mxCell>
        <mxCell id="zMTPzyj43wh1Darj2Y3F-42" style="edgeStyle=orthogonalEdgeStyle;rounded=0;orthogonalLoop=1;jettySize=auto;html=1;entryX=0;entryY=0.5;entryDx=0;entryDy=0;fontFamily=Helvetica;fontSize=12;fontColor=default;" edge="1" parent="1" source="zMTPzyj43wh1Darj2Y3F-33" target="zMTPzyj43wh1Darj2Y3F-40">
          <mxGeometry relative="1" as="geometry" />
        </mxCell>
        <mxCell id="zMTPzyj43wh1Darj2Y3F-43" style="edgeStyle=orthogonalEdgeStyle;rounded=0;orthogonalLoop=1;jettySize=auto;html=1;entryX=0;entryY=0.5;entryDx=0;entryDy=0;fontFamily=Helvetica;fontSize=12;fontColor=default;" edge="1" parent="1" source="zMTPzyj43wh1Darj2Y3F-33" target="zMTPzyj43wh1Darj2Y3F-38">
          <mxGeometry relative="1" as="geometry" />
        </mxCell>
        <mxCell id="zMTPzyj43wh1Darj2Y3F-44" style="edgeStyle=orthogonalEdgeStyle;rounded=0;orthogonalLoop=1;jettySize=auto;html=1;entryX=0;entryY=0.5;entryDx=0;entryDy=0;fontFamily=Helvetica;fontSize=12;fontColor=default;" edge="1" parent="1" source="zMTPzyj43wh1Darj2Y3F-33" target="zMTPzyj43wh1Darj2Y3F-39">
          <mxGeometry relative="1" as="geometry" />
        </mxCell>
        <mxCell id="zMTPzyj43wh1Darj2Y3F-33" value="" style="rhombus;whiteSpace=wrap;html=1;rounded=1;" vertex="1" parent="1">
          <mxGeometry x="2160" y="20" width="80" height="80" as="geometry" />
        </mxCell>
        <mxCell id="zMTPzyj43wh1Darj2Y3F-35" value="General Purpose v2" style="whiteSpace=wrap;html=1;rounded=1;" vertex="1" parent="1">
          <mxGeometry x="2440" y="-80" width="120" height="40" as="geometry" />
        </mxCell>
        <mxCell id="zMTPzyj43wh1Darj2Y3F-38" value="Premium Block Blobs" style="whiteSpace=wrap;html=1;rounded=1;" vertex="1" parent="1">
          <mxGeometry x="2440" width="120" height="40" as="geometry" />
        </mxCell>
        <mxCell id="zMTPzyj43wh1Darj2Y3F-39" value="Premium Page Blobs" style="whiteSpace=wrap;html=1;rounded=1;" vertex="1" parent="1">
          <mxGeometry x="2440" y="80" width="120" height="40" as="geometry" />
        </mxCell>
        <mxCell id="zMTPzyj43wh1Darj2Y3F-40" value="Premium File Share" style="whiteSpace=wrap;html=1;rounded=1;" vertex="1" parent="1">
          <mxGeometry x="2440" y="160" width="120" height="40" as="geometry" />
        </mxCell>
      </root>
    </mxGraphModel>
  </diagram>
  <diagram id="MarkqqN1r_TOBKeXPpXw" name="Azure Blob Storage">
    <mxGraphModel dx="2074" dy="1182" grid="1" gridSize="10" guides="1" tooltips="1" connect="1" arrows="1" fold="1" page="1" pageScale="1" pageWidth="1100" pageHeight="850" math="0" shadow="0">
      <root>
        <mxCell id="0" />
        <mxCell id="1" parent="0" />
        <mxCell id="TzkEgjrbv9CIzcEyOC5Q-1" value="&lt;font style=&quot;font-size: 20px;&quot; data-font-src=&quot;https://fonts.googleapis.com/css?family=Rubik&quot; face=&quot;Rubik&quot;&gt;Azure Blob Storage&lt;br&gt;&lt;/font&gt;" style="rounded=1;whiteSpace=wrap;html=1;strokeColor=#666666;strokeWidth=1;align=center;verticalAlign=middle;fontFamily=Helvetica;fontSize=12;fontColor=#333333;fillColor=#f5f5f5;" vertex="1" parent="1">
          <mxGeometry x="480" y="240" width="210" height="80" as="geometry" />
        </mxCell>
      </root>
    </mxGraphModel>
  </diagram>
  <diagram id="IRWc3lRuoqyWzxZwGpI0" name="Azure Storage Account">
    <mxGraphModel dx="3174" dy="2032" grid="1" gridSize="10" guides="1" tooltips="1" connect="1" arrows="1" fold="1" page="1" pageScale="1" pageWidth="1100" pageHeight="850" math="0" shadow="0">
      <root>
        <mxCell id="0" />
        <mxCell id="1" parent="0" />
        <mxCell id="EPBGdcF4mttxsyj3LN69-3" value="" style="edgeStyle=orthogonalEdgeStyle;rounded=0;orthogonalLoop=1;jettySize=auto;html=1;fontFamily=Helvetica;fontSize=12;fontColor=default;" edge="1" parent="1" source="EPBGdcF4mttxsyj3LN69-1" target="EPBGdcF4mttxsyj3LN69-2">
          <mxGeometry relative="1" as="geometry" />
        </mxCell>
        <mxCell id="EPBGdcF4mttxsyj3LN69-17" value="" style="edgeStyle=orthogonalEdgeStyle;rounded=0;orthogonalLoop=1;jettySize=auto;html=1;fontFamily=Helvetica;fontSize=12;fontColor=default;" edge="1" parent="1" source="EPBGdcF4mttxsyj3LN69-1" target="EPBGdcF4mttxsyj3LN69-16">
          <mxGeometry relative="1" as="geometry" />
        </mxCell>
        <mxCell id="EPBGdcF4mttxsyj3LN69-29" value="" style="edgeStyle=orthogonalEdgeStyle;rounded=0;orthogonalLoop=1;jettySize=auto;html=1;fontFamily=Helvetica;fontSize=12;fontColor=default;" edge="1" parent="1" source="EPBGdcF4mttxsyj3LN69-1" target="EPBGdcF4mttxsyj3LN69-28">
          <mxGeometry relative="1" as="geometry" />
        </mxCell>
        <mxCell id="EPBGdcF4mttxsyj3LN69-40" value="" style="edgeStyle=orthogonalEdgeStyle;rounded=0;orthogonalLoop=1;jettySize=auto;html=1;fontFamily=Helvetica;fontSize=12;fontColor=default;" edge="1" parent="1" source="EPBGdcF4mttxsyj3LN69-1" target="EPBGdcF4mttxsyj3LN69-39">
          <mxGeometry relative="1" as="geometry" />
        </mxCell>
        <UserObject label="&lt;font style=&quot;font-size: 20px;&quot; data-font-src=&quot;https://fonts.googleapis.com/css?family=Rubik&quot; face=&quot;Rubik&quot;&gt;Azure Storage Account&lt;br&gt;&lt;/font&gt;" tooltip="Foundational component in Azure that provides a namespace to store data objects. &#xa;&#xa;It serve as a container for all Azure Storage Services, Including:-&#xa;Blob Storage&#xa;File Storage&#xa;Table Storage&#xa;Queue Storage&#xa;Disk Storage&#xa;&#xa;A storage account is used to managed and organise your storage resources, define access policies, and monitor usage. " id="EPBGdcF4mttxsyj3LN69-1">
          <mxCell style="rounded=1;whiteSpace=wrap;html=1;strokeColor=#666666;strokeWidth=1;align=center;verticalAlign=middle;fontFamily=Helvetica;fontSize=12;fontColor=#333333;fillColor=#f5f5f5;" vertex="1" parent="1">
            <mxGeometry x="440" y="360" width="199" height="80" as="geometry" />
          </mxCell>
        </UserObject>
        <mxCell id="EPBGdcF4mttxsyj3LN69-5" value="" style="edgeStyle=orthogonalEdgeStyle;rounded=0;orthogonalLoop=1;jettySize=auto;html=1;fontFamily=Helvetica;fontSize=12;fontColor=default;" edge="1" parent="1" source="EPBGdcF4mttxsyj3LN69-2" target="EPBGdcF4mttxsyj3LN69-4">
          <mxGeometry relative="1" as="geometry" />
        </mxCell>
        <mxCell id="EPBGdcF4mttxsyj3LN69-7" value="" style="edgeStyle=orthogonalEdgeStyle;rounded=0;orthogonalLoop=1;jettySize=auto;html=1;fontFamily=Helvetica;fontSize=12;fontColor=default;" edge="1" parent="1" source="EPBGdcF4mttxsyj3LN69-2" target="EPBGdcF4mttxsyj3LN69-6">
          <mxGeometry relative="1" as="geometry" />
        </mxCell>
        <mxCell id="EPBGdcF4mttxsyj3LN69-9" value="" style="edgeStyle=orthogonalEdgeStyle;rounded=0;orthogonalLoop=1;jettySize=auto;html=1;fontFamily=Helvetica;fontSize=12;fontColor=default;" edge="1" parent="1" source="EPBGdcF4mttxsyj3LN69-2" target="EPBGdcF4mttxsyj3LN69-8">
          <mxGeometry relative="1" as="geometry" />
        </mxCell>
        <mxCell id="EPBGdcF4mttxsyj3LN69-13" value="" style="edgeStyle=orthogonalEdgeStyle;rounded=0;orthogonalLoop=1;jettySize=auto;html=1;fontFamily=Helvetica;fontSize=12;fontColor=default;" edge="1" parent="1" source="EPBGdcF4mttxsyj3LN69-2" target="EPBGdcF4mttxsyj3LN69-12">
          <mxGeometry relative="1" as="geometry" />
        </mxCell>
        <mxCell id="EPBGdcF4mttxsyj3LN69-15" style="edgeStyle=orthogonalEdgeStyle;rounded=0;orthogonalLoop=1;jettySize=auto;html=1;entryX=0.5;entryY=1;entryDx=0;entryDy=0;fontFamily=Helvetica;fontSize=12;fontColor=default;" edge="1" parent="1" source="EPBGdcF4mttxsyj3LN69-2" target="EPBGdcF4mttxsyj3LN69-10">
          <mxGeometry relative="1" as="geometry" />
        </mxCell>
        <mxCell id="EPBGdcF4mttxsyj3LN69-2" value="Key Features" style="whiteSpace=wrap;html=1;fillColor=#f5f5f5;strokeColor=#666666;fontColor=#333333;rounded=1;strokeWidth=1;" vertex="1" parent="1">
          <mxGeometry x="480" y="200" width="120" height="40" as="geometry" />
        </mxCell>
        <mxCell id="EPBGdcF4mttxsyj3LN69-4" value="Unified NameSpace" style="whiteSpace=wrap;html=1;fillColor=#f5f5f5;strokeColor=#666666;fontColor=#333333;rounded=1;strokeWidth=1;" vertex="1" parent="1">
          <mxGeometry x="-360" y="40" width="120" height="40" as="geometry" />
        </mxCell>
        <mxCell id="EPBGdcF4mttxsyj3LN69-54" value="" style="edgeStyle=orthogonalEdgeStyle;rounded=0;orthogonalLoop=1;jettySize=auto;html=1;fontFamily=Helvetica;fontSize=12;fontColor=default;" edge="1" parent="1" source="EPBGdcF4mttxsyj3LN69-6" target="EPBGdcF4mttxsyj3LN69-53">
          <mxGeometry relative="1" as="geometry" />
        </mxCell>
        <mxCell id="EPBGdcF4mttxsyj3LN69-6" value="Scalability &amp;amp; Performance " style="whiteSpace=wrap;html=1;fillColor=#f5f5f5;strokeColor=#666666;fontColor=#333333;rounded=1;strokeWidth=1;" vertex="1" parent="1">
          <mxGeometry x="-40" y="40" width="120" height="40" as="geometry" />
        </mxCell>
        <mxCell id="EPBGdcF4mttxsyj3LN69-48" style="edgeStyle=orthogonalEdgeStyle;rounded=0;orthogonalLoop=1;jettySize=auto;html=1;fontFamily=Helvetica;fontSize=12;fontColor=default;" edge="1" parent="1" source="EPBGdcF4mttxsyj3LN69-8" target="EPBGdcF4mttxsyj3LN69-32">
          <mxGeometry relative="1" as="geometry" />
        </mxCell>
        <mxCell id="EPBGdcF4mttxsyj3LN69-50" style="edgeStyle=orthogonalEdgeStyle;rounded=0;orthogonalLoop=1;jettySize=auto;html=1;fontFamily=Helvetica;fontSize=12;fontColor=default;" edge="1" parent="1" source="EPBGdcF4mttxsyj3LN69-8" target="EPBGdcF4mttxsyj3LN69-33">
          <mxGeometry relative="1" as="geometry" />
        </mxCell>
        <mxCell id="EPBGdcF4mttxsyj3LN69-51" style="edgeStyle=orthogonalEdgeStyle;rounded=0;orthogonalLoop=1;jettySize=auto;html=1;fontFamily=Helvetica;fontSize=12;fontColor=default;" edge="1" parent="1" source="EPBGdcF4mttxsyj3LN69-8" target="EPBGdcF4mttxsyj3LN69-34">
          <mxGeometry relative="1" as="geometry" />
        </mxCell>
        <mxCell id="EPBGdcF4mttxsyj3LN69-52" style="edgeStyle=orthogonalEdgeStyle;rounded=0;orthogonalLoop=1;jettySize=auto;html=1;entryX=0.5;entryY=1;entryDx=0;entryDy=0;fontFamily=Helvetica;fontSize=12;fontColor=default;" edge="1" parent="1" source="EPBGdcF4mttxsyj3LN69-8" target="EPBGdcF4mttxsyj3LN69-30">
          <mxGeometry relative="1" as="geometry" />
        </mxCell>
        <mxCell id="EPBGdcF4mttxsyj3LN69-8" value="Data Redundancy" style="whiteSpace=wrap;html=1;fillColor=#f5f5f5;strokeColor=#666666;fontColor=#333333;rounded=1;strokeWidth=1;" vertex="1" parent="1">
          <mxGeometry x="480" y="40" width="120" height="40" as="geometry" />
        </mxCell>
        <mxCell id="EPBGdcF4mttxsyj3LN69-10" value="Flexible Access Mode" style="whiteSpace=wrap;html=1;fillColor=#f5f5f5;strokeColor=#666666;fontColor=#333333;rounded=1;strokeWidth=1;" vertex="1" parent="1">
          <mxGeometry x="800" y="40" width="120" height="40" as="geometry" />
        </mxCell>
        <mxCell id="EPBGdcF4mttxsyj3LN69-14" value="" style="edgeStyle=orthogonalEdgeStyle;rounded=0;orthogonalLoop=1;jettySize=auto;html=1;fontFamily=Helvetica;fontSize=12;fontColor=default;" edge="1" parent="1" source="EPBGdcF4mttxsyj3LN69-2" target="EPBGdcF4mttxsyj3LN69-12">
          <mxGeometry relative="1" as="geometry">
            <mxPoint x="600" y="220" as="sourcePoint" />
            <mxPoint x="980" y="80" as="targetPoint" />
          </mxGeometry>
        </mxCell>
        <mxCell id="EPBGdcF4mttxsyj3LN69-12" value="Monitoring and Analytics" style="whiteSpace=wrap;html=1;fillColor=#f5f5f5;strokeColor=#666666;fontColor=#333333;rounded=1;strokeWidth=1;" vertex="1" parent="1">
          <mxGeometry x="1120" y="40" width="120" height="40" as="geometry" />
        </mxCell>
        <mxCell id="EPBGdcF4mttxsyj3LN69-19" value="" style="edgeStyle=orthogonalEdgeStyle;rounded=0;orthogonalLoop=1;jettySize=auto;html=1;fontFamily=Helvetica;fontSize=12;fontColor=default;" edge="1" parent="1" source="EPBGdcF4mttxsyj3LN69-16" target="EPBGdcF4mttxsyj3LN69-18">
          <mxGeometry relative="1" as="geometry" />
        </mxCell>
        <mxCell id="EPBGdcF4mttxsyj3LN69-24" style="edgeStyle=orthogonalEdgeStyle;rounded=0;orthogonalLoop=1;jettySize=auto;html=1;entryX=0.5;entryY=0;entryDx=0;entryDy=0;fontFamily=Helvetica;fontSize=12;fontColor=default;" edge="1" parent="1" source="EPBGdcF4mttxsyj3LN69-16" target="EPBGdcF4mttxsyj3LN69-21">
          <mxGeometry relative="1" as="geometry" />
        </mxCell>
        <mxCell id="EPBGdcF4mttxsyj3LN69-25" style="edgeStyle=orthogonalEdgeStyle;rounded=0;orthogonalLoop=1;jettySize=auto;html=1;fontFamily=Helvetica;fontSize=12;fontColor=default;" edge="1" parent="1" source="EPBGdcF4mttxsyj3LN69-16" target="EPBGdcF4mttxsyj3LN69-20">
          <mxGeometry relative="1" as="geometry" />
        </mxCell>
        <mxCell id="EPBGdcF4mttxsyj3LN69-26" style="edgeStyle=orthogonalEdgeStyle;rounded=0;orthogonalLoop=1;jettySize=auto;html=1;fontFamily=Helvetica;fontSize=12;fontColor=default;" edge="1" parent="1" source="EPBGdcF4mttxsyj3LN69-16" target="EPBGdcF4mttxsyj3LN69-22">
          <mxGeometry relative="1" as="geometry" />
        </mxCell>
        <mxCell id="EPBGdcF4mttxsyj3LN69-27" style="edgeStyle=orthogonalEdgeStyle;rounded=0;orthogonalLoop=1;jettySize=auto;html=1;fontFamily=Helvetica;fontSize=12;fontColor=default;" edge="1" parent="1" source="EPBGdcF4mttxsyj3LN69-16" target="EPBGdcF4mttxsyj3LN69-23">
          <mxGeometry relative="1" as="geometry" />
        </mxCell>
        <mxCell id="EPBGdcF4mttxsyj3LN69-16" value="Types of Storage Accounts" style="whiteSpace=wrap;html=1;fillColor=#f5f5f5;strokeColor=#666666;fontColor=#333333;rounded=1;strokeWidth=1;" vertex="1" parent="1">
          <mxGeometry x="479.5" y="560" width="120" height="40" as="geometry" />
        </mxCell>
        <UserObject label="General Purpose v2" tooltip="Commonly used and recommended storage account type.&#xa;&#xa;Supports:-&#xa;Blob Storage (Block Blob, Append Blob, Page Blob)&#xa;File Storage&#xa;Table Storage&#xa;Queue Storage&#xa;&#xa;Performance:&#xa;Standard &amp; Premium i.e HDD and SDD&#xa;" id="EPBGdcF4mttxsyj3LN69-18">
          <mxCell style="whiteSpace=wrap;html=1;fillColor=#f5f5f5;strokeColor=#666666;fontColor=#333333;rounded=1;strokeWidth=1;" vertex="1" parent="1">
            <mxGeometry x="80" y="720" width="120" height="40" as="geometry" />
          </mxCell>
        </UserObject>
        <UserObject label="General Purpose v1" tooltip="Older Version and for legacy use.&#xa;&#xa;Supports:-&#xa;Blob Storage&#xa;File Storage&#xa;Table Storage&#xa;Queue Storage&#xa;&#xa;Lacks Advance features&#xa;" id="EPBGdcF4mttxsyj3LN69-20">
          <mxCell style="whiteSpace=wrap;html=1;fillColor=#f5f5f5;strokeColor=#666666;fontColor=#333333;rounded=1;strokeWidth=1;" vertex="1" parent="1">
            <mxGeometry x="280" y="720" width="120" height="40" as="geometry" />
          </mxCell>
        </UserObject>
        <UserObject label="Blob Storage" tooltip="Specialised account for Blob Storage Services.&#xa;&#xa;Supports:-&#xa;Blob Storage (Block Blob, Append Blob)&#xa;Hot, Cool and Archive tier for CO&#xa;&#xa;Usecase:&#xa;Media Streaming, Backups and data lakes&#xa;" id="EPBGdcF4mttxsyj3LN69-21">
          <mxCell style="whiteSpace=wrap;html=1;fillColor=#f5f5f5;strokeColor=#666666;fontColor=#333333;rounded=1;strokeWidth=1;" vertex="1" parent="1">
            <mxGeometry x="480" y="720" width="120" height="40" as="geometry" />
          </mxCell>
        </UserObject>
        <UserObject label="File Storage" tooltip="Premium Storage account for Azure File Shares.&#xa;&#xa;Supports:-&#xa;Fully Managed SMB and NFS File share.&#xa;&#xa;Performance:&#xa;Optimised for low-latency and high performance workload&#xa;" id="EPBGdcF4mttxsyj3LN69-22">
          <mxCell style="whiteSpace=wrap;html=1;fillColor=#f5f5f5;strokeColor=#666666;fontColor=#333333;rounded=1;strokeWidth=1;" vertex="1" parent="1">
            <mxGeometry x="680" y="720" width="120" height="40" as="geometry" />
          </mxCell>
        </UserObject>
        <UserObject label="Premium Storage" tooltip="Optimised for low-latency, high-throughput.&#xa;&#xa;Supports:-&#xa;Disk&#xa;Block Blobs&#xa;File Shares&#xa;&#xa;Performance:&#xa;Running DB, Virtual Machines, and High Performance applications&#xa;" id="EPBGdcF4mttxsyj3LN69-23">
          <mxCell style="whiteSpace=wrap;html=1;fillColor=#f5f5f5;strokeColor=#666666;fontColor=#333333;rounded=1;strokeWidth=1;" vertex="1" parent="1">
            <mxGeometry x="880" y="720" width="120" height="40" as="geometry" />
          </mxCell>
        </UserObject>
        <mxCell id="EPBGdcF4mttxsyj3LN69-63" style="edgeStyle=orthogonalEdgeStyle;rounded=0;orthogonalLoop=1;jettySize=auto;html=1;fontFamily=Helvetica;fontSize=12;fontColor=default;" edge="1" parent="1" source="EPBGdcF4mttxsyj3LN69-28" target="EPBGdcF4mttxsyj3LN69-61">
          <mxGeometry relative="1" as="geometry" />
        </mxCell>
        <mxCell id="EPBGdcF4mttxsyj3LN69-64" style="edgeStyle=orthogonalEdgeStyle;rounded=0;orthogonalLoop=1;jettySize=auto;html=1;entryX=0;entryY=0.5;entryDx=0;entryDy=0;fontFamily=Helvetica;fontSize=12;fontColor=default;" edge="1" parent="1" source="EPBGdcF4mttxsyj3LN69-28" target="EPBGdcF4mttxsyj3LN69-59">
          <mxGeometry relative="1" as="geometry" />
        </mxCell>
        <mxCell id="EPBGdcF4mttxsyj3LN69-65" style="edgeStyle=orthogonalEdgeStyle;rounded=0;orthogonalLoop=1;jettySize=auto;html=1;entryX=0;entryY=0.5;entryDx=0;entryDy=0;fontFamily=Helvetica;fontSize=12;fontColor=default;" edge="1" parent="1" source="EPBGdcF4mttxsyj3LN69-28" target="EPBGdcF4mttxsyj3LN69-62">
          <mxGeometry relative="1" as="geometry" />
        </mxCell>
        <mxCell id="EPBGdcF4mttxsyj3LN69-28" value="Storage Tiers" style="whiteSpace=wrap;html=1;fillColor=#f5f5f5;strokeColor=#666666;fontColor=#333333;rounded=1;strokeWidth=1;" vertex="1" parent="1">
          <mxGeometry x="1200" y="370" width="120" height="60" as="geometry" />
        </mxCell>
        <mxCell id="EPBGdcF4mttxsyj3LN69-30" value="Locally Redundant Storage" style="whiteSpace=wrap;html=1;fillColor=#f5f5f5;strokeColor=#666666;fontColor=#333333;rounded=1;strokeWidth=1;" vertex="1" parent="1">
          <mxGeometry x="320" y="-200" width="120" height="40" as="geometry" />
        </mxCell>
        <mxCell id="EPBGdcF4mttxsyj3LN69-32" value="Zone Redundant Storage" style="whiteSpace=wrap;html=1;fillColor=#f5f5f5;strokeColor=#666666;fontColor=#333333;rounded=1;strokeWidth=1;" vertex="1" parent="1">
          <mxGeometry x="660" y="-200" width="120" height="40" as="geometry" />
        </mxCell>
        <mxCell id="EPBGdcF4mttxsyj3LN69-33" value="Geo Redundant Storage (GRS)" style="whiteSpace=wrap;html=1;fillColor=#f5f5f5;strokeColor=#666666;fontColor=#333333;rounded=1;strokeWidth=1;" vertex="1" parent="1">
          <mxGeometry x="400" y="-320" width="120" height="40" as="geometry" />
        </mxCell>
        <mxCell id="EPBGdcF4mttxsyj3LN69-34" value="&lt;div&gt;Read-Access GRS&lt;/div&gt;&lt;div&gt;(RA-GRS)&lt;br&gt;&lt;/div&gt;" style="whiteSpace=wrap;html=1;fillColor=#f5f5f5;strokeColor=#666666;fontColor=#333333;rounded=1;strokeWidth=1;" vertex="1" parent="1">
          <mxGeometry x="560" y="-320" width="120" height="40" as="geometry" />
        </mxCell>
        <mxCell id="EPBGdcF4mttxsyj3LN69-45" style="edgeStyle=orthogonalEdgeStyle;rounded=0;orthogonalLoop=1;jettySize=auto;html=1;entryX=1;entryY=0.5;entryDx=0;entryDy=0;fontFamily=Helvetica;fontSize=12;fontColor=default;" edge="1" parent="1" source="EPBGdcF4mttxsyj3LN69-39" target="EPBGdcF4mttxsyj3LN69-41">
          <mxGeometry relative="1" as="geometry" />
        </mxCell>
        <mxCell id="EPBGdcF4mttxsyj3LN69-46" style="edgeStyle=orthogonalEdgeStyle;rounded=0;orthogonalLoop=1;jettySize=auto;html=1;entryX=1;entryY=0.5;entryDx=0;entryDy=0;fontFamily=Helvetica;fontSize=12;fontColor=default;" edge="1" parent="1" source="EPBGdcF4mttxsyj3LN69-39" target="EPBGdcF4mttxsyj3LN69-44">
          <mxGeometry relative="1" as="geometry" />
        </mxCell>
        <mxCell id="EPBGdcF4mttxsyj3LN69-47" style="edgeStyle=orthogonalEdgeStyle;rounded=0;orthogonalLoop=1;jettySize=auto;html=1;entryX=1;entryY=0.5;entryDx=0;entryDy=0;fontFamily=Helvetica;fontSize=12;fontColor=default;" edge="1" parent="1" source="EPBGdcF4mttxsyj3LN69-39" target="EPBGdcF4mttxsyj3LN69-43">
          <mxGeometry relative="1" as="geometry" />
        </mxCell>
        <mxCell id="EPBGdcF4mttxsyj3LN69-39" value="Security" style="whiteSpace=wrap;html=1;fillColor=#f5f5f5;strokeColor=#666666;fontColor=#333333;rounded=1;strokeWidth=1;" vertex="1" parent="1">
          <mxGeometry x="-120" y="370" width="120" height="60" as="geometry" />
        </mxCell>
        <mxCell id="EPBGdcF4mttxsyj3LN69-41" value="Encryption" style="whiteSpace=wrap;html=1;fillColor=#f5f5f5;strokeColor=#666666;fontColor=#333333;rounded=1;strokeWidth=1;" vertex="1" parent="1">
          <mxGeometry x="-360" y="260" width="120" height="40" as="geometry" />
        </mxCell>
        <mxCell id="EPBGdcF4mttxsyj3LN69-43" value="Access Control" style="whiteSpace=wrap;html=1;fillColor=#f5f5f5;strokeColor=#666666;fontColor=#333333;rounded=1;strokeWidth=1;" vertex="1" parent="1">
          <mxGeometry x="-360" y="380" width="120" height="40" as="geometry" />
        </mxCell>
        <mxCell id="EPBGdcF4mttxsyj3LN69-44" value="Firewalls and Virtual Networks" style="whiteSpace=wrap;html=1;fillColor=#f5f5f5;strokeColor=#666666;fontColor=#333333;rounded=1;strokeWidth=1;" vertex="1" parent="1">
          <mxGeometry x="-360" y="500" width="120" height="40" as="geometry" />
        </mxCell>
        <mxCell id="EPBGdcF4mttxsyj3LN69-56" value="" style="edgeStyle=orthogonalEdgeStyle;rounded=0;orthogonalLoop=1;jettySize=auto;html=1;fontFamily=Helvetica;fontSize=12;fontColor=default;" edge="1" parent="1" source="EPBGdcF4mttxsyj3LN69-53" target="EPBGdcF4mttxsyj3LN69-55">
          <mxGeometry relative="1" as="geometry" />
        </mxCell>
        <mxCell id="EPBGdcF4mttxsyj3LN69-58" style="edgeStyle=orthogonalEdgeStyle;rounded=0;orthogonalLoop=1;jettySize=auto;html=1;entryX=0.5;entryY=1;entryDx=0;entryDy=0;fontFamily=Helvetica;fontSize=12;fontColor=default;" edge="1" parent="1" source="EPBGdcF4mttxsyj3LN69-53" target="EPBGdcF4mttxsyj3LN69-57">
          <mxGeometry relative="1" as="geometry" />
        </mxCell>
        <mxCell id="EPBGdcF4mttxsyj3LN69-53" value="Performance" style="whiteSpace=wrap;html=1;fillColor=#f5f5f5;strokeColor=#666666;fontColor=#333333;rounded=1;strokeWidth=1;" vertex="1" parent="1">
          <mxGeometry x="-160" y="-120" width="120" height="40" as="geometry" />
        </mxCell>
        <UserObject label="Standard Tier" tooltip="HDD Backed Storage for cost efficiency." id="EPBGdcF4mttxsyj3LN69-55">
          <mxCell style="whiteSpace=wrap;html=1;fillColor=#f5f5f5;strokeColor=#666666;fontColor=#333333;rounded=1;strokeWidth=1;" vertex="1" parent="1">
            <mxGeometry x="-240" y="-280" width="120" height="40" as="geometry" />
          </mxCell>
        </UserObject>
        <UserObject label="Premium Tier" tooltip="SDD backed storage for low latency and high performance." id="EPBGdcF4mttxsyj3LN69-57">
          <mxCell style="whiteSpace=wrap;html=1;fillColor=#f5f5f5;strokeColor=#666666;fontColor=#333333;rounded=1;strokeWidth=1;" vertex="1" parent="1">
            <mxGeometry x="-80" y="-280" width="120" height="40" as="geometry" />
          </mxCell>
        </UserObject>
        <mxCell id="EPBGdcF4mttxsyj3LN69-59" value="Hot" style="whiteSpace=wrap;html=1;fillColor=#f5f5f5;strokeColor=#666666;fontColor=#333333;rounded=1;strokeWidth=1;" vertex="1" parent="1">
          <mxGeometry x="1440" y="260" width="80" height="40" as="geometry" />
        </mxCell>
        <mxCell id="EPBGdcF4mttxsyj3LN69-61" value="Cool" style="whiteSpace=wrap;html=1;fillColor=#f5f5f5;strokeColor=#666666;fontColor=#333333;rounded=1;strokeWidth=1;" vertex="1" parent="1">
          <mxGeometry x="1440" y="380" width="80" height="40" as="geometry" />
        </mxCell>
        <mxCell id="EPBGdcF4mttxsyj3LN69-62" value="Archive" style="whiteSpace=wrap;html=1;fillColor=#f5f5f5;strokeColor=#666666;fontColor=#333333;rounded=1;strokeWidth=1;" vertex="1" parent="1">
          <mxGeometry x="1440" y="500" width="80" height="40" as="geometry" />
        </mxCell>
      </root>
    </mxGraphModel>
  </diagram>
</mxfile>
